<mxfile host="app.diagrams.net" modified="2024-07-22T08:49:51.203Z" agent="Mozilla/5.0 (Windows NT 10.0; Win64; x64) AppleWebKit/537.36 (KHTML, like Gecko) Chrome/126.0.0.0 Safari/537.36" version="24.7.1" etag="32ixuF4cPcxC_g-H8Zph" type="github">
  <diagram name="페이지-1" id="U_V5enMbKft5qT3TyVWM">
    <mxGraphModel>
      <root>
        <mxCell id="0" />
        <mxCell id="1" parent="0" />
      </root>
    </mxGraphModel>
  </diagram>
</mxfile>
